<svg version="1.2" xmlns="http://www.w3.org/2000/svg" viewBox="0 0 122 103" width="122" height="103"><style>.a{fill:#fff1da}.b{fill:#d5d6db}.c{fill:#029bc5}.d{fill:#e1e6e9}.e{fill:#3a556a}</style><path class="a" d="m28.8 45c0 9.9 8.1 18 18 18h27c2.8 0 5-2.2 5-5v-34c0-5.5-4.5-10-10-10h-35c-2.8 0-5 2.2-5 5z"/><path class="b" d="m77.4 58.9c-1.4 0.3-2.7 0.9-3.9 1.7-3.1 2-5 4.9-4.1 6.4 0.9 1.5 4.2 1.1 7.3-0.9 1.2-0.8 2.3-1.7 3.2-2.8 0.4-0.6 0.5-1.3 0.2-1.8l-1.2-1.9c-0.3-0.6-0.9-0.8-1.5-0.7z"/><path class="b" d="m69.5 31.9c-1 0.3-1.9 0.7-2.8 1.2-2.3 1.5-3.6 3.6-3 4.7 0.7 1.1 3 0.8 5.3-0.7 0.9-0.5 1.7-1.2 2.3-2 0.3-0.4 0.4-0.9 0.2-1.3l-0.9-1.4c-0.2-0.4-0.6-0.5-1.1-0.5z"/><path class="c" d="m56.7 33.1q-0.4-0.1-0.7 0.1l-5.3 3.5c-0.5 0.2-0.6 0.8-0.4 1.2q0.1 0.1 0.2 0.2l13.2 9.1 17.8-11.4z"/><path class="d" d="m113.1 31.8l-48.6 30.5-28.7 11.5-14.6 2.9-1.6-2.8 80.9-49.9c2.4-1.5 5.1-2.4 7.7-2.7q1.8-0.1 3.5 0.2 1.5 0.2 2.8 0.8c1 0.5 2.8 0.6 3.4 1.5 0 0 1.4 4.4-4.8 8z"/><path class="c" d="m65.2 58.3l-21 33.5c-0.3 0.4-0.1 1 0.3 1.1 0.3 0.2 0.6 0.1 0.9-0.1l5.4-3.4c1-0.6 1.9-1.4 2.7-2.4l40.7-47.9z"/><path class="c" d="m12.2 57.2c-0.4-0.1-0.8-0.1-1.1 0.2l-4.4 2.8c-0.6 0.3-0.9 1.1-0.6 1.6q0.1 0.2 0.2 0.3l12.4 9.9 13-8.1z"/><path class="c" d="m22.9 73.8l-6.7 9.3c-0.1 0.1-0.1 0.3 0.1 0.4q0.1 0.1 0.3 0l4.1-2.7q0.1 0 0.1 0l9.7-11.9z"/><path class="c" d="m110.9 21.9q-1.7-0.3-3.6-0.2c-1.1 1.7-1.9 3.5-2.1 5.4-0.1 0.4 0.2 0.7 0.6 0.6q0.2 0 0.4-0.1l7.6-4.8q-1.3-0.7-2.9-0.9z"/><path class="b" d="m94.3 30.8l5-3.2 4.6 7.9-4.9 3.1z"/><path class="e" d="m91.2 33.9c-0.6 0.4-0.8 1.1-0.5 1.6l0.5 0.8c0.3 0.6 1 0.6 1.6 0.2 0.6-0.3 0.8-1 0.5-1.5l-0.5-0.9c-0.3-0.5-1-0.6-1.6-0.2z"/><path class="e" d="m86.7 36.7c-0.6 0.3-0.8 1.1-0.5 1.6l0.5 0.8c0.3 0.5 1.1 0.6 1.7 0.2 0.5-0.4 0.7-1 0.5-1.6l-0.5-0.8c-0.3-0.5-1.1-0.6-1.7-0.2z"/><path class="e" d="m82.3 39.4c-0.6 0.4-0.9 1.1-0.6 1.7l0.5 0.8c0.4 0.5 1.1 0.6 1.7 0.2 0.5-0.4 0.8-1.1 0.5-1.6l-0.5-0.8c-0.3-0.5-1-0.7-1.6-0.3z"/><path class="e" d="m77.8 42.2c-0.6 0.4-0.8 1.1-0.5 1.6l0.5 0.9c0.3 0.5 1 0.6 1.6 0.2 0.6-0.4 0.8-1.1 0.5-1.6l-0.5-0.9c-0.3-0.5-1-0.6-1.6-0.2z"/><path class="e" d="m73.3 45c-0.6 0.3-0.8 1.1-0.5 1.6l0.5 0.8c0.3 0.6 1 0.7 1.6 0.3 0.6-0.4 0.9-1.1 0.6-1.6l-0.5-0.9c-0.3-0.5-1.1-0.6-1.7-0.2q0 0 0 0z"/><path class="e" d="m68.9 47.7c-0.6 0.4-0.9 1.1-0.5 1.7l0.4 0.8c0.3 0.5 1.1 0.6 1.7 0.3 0.6-0.4 0.8-1.1 0.5-1.7l-0.5-0.8c-0.3-0.5-1-0.6-1.6-0.3q0 0 0 0z"/><path class="e" d="m64.4 50.5c-0.6 0.4-0.8 1.1-0.5 1.6l0.5 0.9c0.3 0.5 1 0.6 1.6 0.2 0.6-0.3 0.8-1.1 0.5-1.6l-0.4-0.8c-0.4-0.6-1.1-0.7-1.7-0.3z"/><path class="e" d="m60 53.3c-0.6 0.4-0.9 1.1-0.6 1.6l0.5 0.9c0.3 0.5 1.1 0.6 1.6 0.2 0.6-0.4 0.9-1.1 0.6-1.6l-0.5-0.9c-0.3-0.5-1-0.6-1.6-0.2z"/><path class="e" d="m55.5 56.1c-0.6 0.3-0.8 1.1-0.5 1.6l0.4 0.8c0.4 0.5 1.1 0.7 1.7 0.3 0.6-0.4 0.8-1.1 0.5-1.6l-0.5-0.9c-0.3-0.5-1-0.6-1.6-0.2z"/><path class="e" d="m51 58.8c-0.6 0.4-0.8 1.1-0.5 1.7l0.5 0.8c0.3 0.5 1 0.6 1.6 0.3 0.6-0.4 0.9-1.2 0.6-1.7l-0.5-0.8c-0.3-0.5-1.1-0.6-1.7-0.3z"/><path class="e" d="m46.6 61.6c-0.6 0.4-0.9 1.1-0.6 1.6l0.5 0.9c0.3 0.5 1.1 0.6 1.7 0.2 0.6-0.4 0.8-1.1 0.5-1.6l-0.5-0.8c-0.3-0.6-1-0.7-1.6-0.3z"/></svg>